<svg fill="none" height="512" viewBox="0 0 24 24" width="512" xmlns="http://www.w3.org/2000/svg"><g clip-rule="evenodd" fill="rgb(0,0,0)" fill-rule="evenodd"><path d="m2.29289 16.2929c.39053-.3905 1.02369-.3905 1.41422 0l3.29289 3.2929 3.2929-3.2929c.3905-.3905 1.0237-.3905 1.4142 0s.3905 1.0237 0 1.4142l-3.99999 4c-.39053.3905-1.02369.3905-1.41422 0l-4-4c-.39052-.3905-.39052-1.0237 0-1.4142z"/><path d="m7 8c.55228 0 1 .44772 1 1v12c0 .5523-.44772 1-1 1s-1-.4477-1-1v-12c0-.55228.44772-1 1-1z"/><path d="m16.2929 2.29289c.3905-.39052 1.0237-.39052 1.4142 0l4 4c.3905.39053.3905 1.02369 0 1.41422-.3905.39052-1.0237.39052-1.4142 0l-3.2929-3.2929-3.2929 3.2929c-.3905.39052-1.0237.39052-1.4142 0-.3905-.39053-.3905-1.02369 0-1.41422z"/><path d="m17 2c.5523 0 1 .44772 1 1v12c0 .5523-.4477 1-1 1s-1-.4477-1-1v-12c0-.55228.4477-1 1-1z"/></g></svg>